<svg id="svg" version="1.1" xmlns="http://www.w3.org/2000/svg" xmlns:xlink="http://www.w3.org/1999/xlink" width="400" height="400" viewBox="0, 0, 400,400"><g id="svgg"><path id="path0" d="M3.922 200.000 L 3.922 396.078 33.333 396.078 L 62.745 396.078 62.745 200.000 L 62.745 3.922 33.333 3.922 L 3.922 3.922 3.922 200.000 M166.667 200.000 L 166.667 396.078 200.000 396.078 L 233.333 396.078 233.333 200.000 L 233.333 3.922 200.000 3.922 L 166.667 3.922 166.667 200.000 M294.118 152.941 L 294.118 172.549 275.490 172.549 L 256.863 172.549 256.863 200.980 L 256.863 229.412 275.490 229.412 L 294.118 229.412 294.118 248.039 L 294.118 266.667 322.549 266.667 L 350.980 266.667 350.980 248.039 L 350.980 229.412 369.608 229.412 L 388.235 229.412 388.235 200.980 L 388.235 172.549 369.608 172.549 L 350.980 172.549 350.980 152.941 L 350.980 133.333 322.549 133.333 L 294.118 133.333 294.118 152.941 " stroke="none" fill="#000000" fill-rule="evenodd"></path></g></svg>